<svg xmlns="http://www.w3.org/2000/svg" xmlns:xlink="http://www.w3.org/1999/xlink" version="1.1" x="0px" y="0px" viewBox="0 0 100 125" style="enable-background:new 0 0 100 100;" xml:space="preserve"><style type="text/css">
	.st0{fill:#050001;}
	.st1{fill:none;stroke:#000000;stroke-width:5.6693;stroke-linecap:round;stroke-miterlimit:10;}
	.st2{fill:none;stroke:#000000;stroke-width:5.6693;stroke-linecap:round;stroke-linejoin:round;stroke-miterlimit:10;}
	
		.st3{fill-rule:evenodd;clip-rule:evenodd;fill:none;stroke:#000000;stroke-width:5.6693;stroke-linecap:round;stroke-linejoin:round;stroke-miterlimit:10;}
	.st4{fill:none;stroke:#000000;stroke-width:5.6693;stroke-linecap:square;stroke-miterlimit:10;}
	.st5{fill:none;stroke:#000000;stroke-width:5.0823;stroke-miterlimit:10;}
	.st6{fill:none;stroke:#000000;stroke-width:5.6693;stroke-linejoin:round;stroke-miterlimit:10;}
	.st7{fill:none;stroke:#000000;stroke-width:8.5039;stroke-linecap:round;stroke-linejoin:round;stroke-miterlimit:10;}
	.st8{fill-rule:evenodd;clip-rule:evenodd;}
	
		.st9{fill-rule:evenodd;clip-rule:evenodd;fill:none;stroke:#000000;stroke-width:5.6693;stroke-linejoin:round;stroke-miterlimit:10;}
</style><g><path d="M55.5,48.9L55.5,48.9c0-1.1,0.6-2.1,1.6-2.6c5-2.6,8.3-7.8,8.2-13.8c-0.2-7.9-6.6-14.5-14.5-14.9c-8.8-0.4-16,6.6-16,15.2   c0,5.9,3.3,10.9,8.2,13.5c1,0.5,1.6,1.5,1.6,2.6v0c0,1.3-0.8,2.4-2.1,2.8c-9.2,2.9-16.1,11.1-17.1,21c-0.1,1.4,0.9,2.6,2.3,2.6   h44.6c1.3,0,2.4-1.2,2.3-2.5c-1-9.9-7.9-18.1-17.1-21.1C56.3,51.3,55.5,50.2,55.5,48.9z"/></g></svg>